# File created by Blade
# Date/Time:  Wed Jan 21 17:10:49 2015
#---------------------------------------------------------
:version 1.10
:name HOM
:units
  mass 1.0
  length 1.000000
  angle deg
:documentation
     Acclaim Skeleton File
:root
   axis xyz
   order TX TY TZ RX RY RZ
   position 0.000000 0.000000 0.000000
   orientation 0 0 0
:bonedata
   begin
      id 1
      name Spine_dum
      direction 0.000000 1.000000 0.000000
      length 7.067664
      axis 0.0 0.0 0.0 xyz
   end
   begin
      id 2
      name LeftUpLeg_dum
      direction 1.000000 0.000000 0.000000
      length 4.013002
      axis 0.0 0.0 0.0 xyz
   end
   begin
      id 3
      name RightUpLeg_dum
      direction -1.000000 0.000000 0.000000
      length 4.013002
      axis 0.0 0.0 0.0 xyz
   end
   begin
      id 4
      name Spine
      direction 0.000000 1.000000 0.000000
      length 0.000000
      axis 0.0 0.0 0.0 xyz
      dof rx ry rz
   end
   begin
      id 5
      name Spine_dum1
      direction 0.000000 1.000000 0.000000
      length 15.039886
      axis 0.0 0.0 0.0 xyz
   end
   begin
      id 6
      name Spine_dum2
      direction 0.000000 1.000000 0.000000
      length 10.530368
      axis 0.0 0.0 0.0 xyz
   end
   begin
      id 7
      name Spine_dum3
      direction 0.000000 1.000000 0.000000
      length 10.530368
      axis 0.0 0.0 0.0 xyz
   end
   begin
      id 8
      name Head
      direction 0.000000 1.000000 0.000000
      length 4.527550
      axis 0.0 0.0 0.0 xyz
      dof rx ry rz
   end
   begin
      id 9
      name LeftShoulder
      direction 1.000000 0.000000 0.000000
      length 7.028855
      axis 0.0 0.0 -90.0 xyz
      dof rx ry rz
   end
   begin
      id 10
      name LeftArm
      direction 1.000000 0.000000 0.000000
      length 10.797705
      axis 0.0 0.0 -90.0 xyz
      dof rx ry rz
   end
   begin
      id 11
      name LeftForeArm
      direction 1.000000 0.000000 0.000000
      length 7.907442
      axis 0.0 0.0 -90.0 xyz
      dof ry rz rx
   end
   begin
      id 12
      name LeftHand
      direction 0.000000 0.000000 0.000000
      length 0.000000
      axis 0.0 0.0 -90.0 xyz
      dof rx ry rz
   end
   begin
      id 13
      name LeftHand_dum1
      direction 0.000000 0.000000 0.000000
      length 0.000000
      axis 0.0 0.0 -90.0 xyz
   end
   begin
      id 14
      name LeftHand_dum2
      direction 1.000000 0.000000 0.000000
      length 3.937000
      axis 0.0 0.0 -90.0 xyz
   end
   begin
      id 15
      name LeftHandThumb1
      direction 0.000000 0.000000 1.000000
      length 3.937000
      axis 0.0 0.0 -90.0 xyz
      dof rx rz ry
   end
   begin
      id 16
      name RightShoulder
      direction -1.000000 0.000000 0.000000
      length 7.028855
      axis 0.0 0.0 90.0 xyz
      dof rx ry rz
   end
   begin
      id 17
      name RightArm
      direction -1.000000 0.000000 0.000000
      length 10.797705
      axis 0.0 0.0 90.0 xyz
      dof rx ry rz
   end
   begin
      id 18
      name RightForeArm
      direction -1.000000 0.000000 0.000000
      length 7.907442
      axis 0.0 0.0 90.0 xyz
      dof ry rz rx
   end
   begin
      id 19
      name RightHand
      direction 0.000000 0.000000 0.000000
      length 0.000000
      axis 0.0 0.0 90.0 xyz
      dof rx ry rz
   end
   begin
      id 20
      name RightHand_dum1
      direction 0.000000 0.000000 0.000000
      length 0.000000
      axis 0.0 0.0 90.0 xyz
   end
   begin
      id 21
      name RightHand_dum2
      direction -1.000000 0.000000 0.000000
      length 3.937000
      axis 0.0 0.0 90.0 xyz
   end
   begin
      id 22
      name RightHandThumb1
      direction 0.000000 0.000000 1.000000
      length 3.937000
      axis 0.0 0.0 90.0 xyz
      dof rx rz ry
   end
   begin
      id 23
      name LeftUpLeg
      direction 0.000000 -1.000000 0.000000
      length 16.899758
      axis 0.0 0.0 0.0 xyz
      dof rx ry rz
   end
   begin
      id 24
      name LeftLeg
      direction 0.000000 -1.000000 0.000000
      length 17.389183
      axis 0.0 0.0 0.0 xyz
      dof rx ry rz
   end
   begin
      id 25
      name LeftFoot
      direction 0.000000 -0.258819 0.965926
      length 4.924528
      axis 15.0 0.0 0.0 xyz
      dof rx ry rz
   end
   begin
      id 26
      name LeftToeBase
      direction 0.000000 0.000000 1.000000
      length 2.952750
      axis 0.0 0.0 0.0 xyz
      dof rx ry rz
   end
   begin
      id 27
      name RightUpLeg
      direction 0.000000 -1.000000 0.000000
      length 16.899758
      axis 0.0 0.0 0.0 xyz
      dof rx ry rz
   end
   begin
      id 28
      name RightLeg
      direction 0.000000 -1.000000 0.000000
      length 17.389183
      axis 0.0 0.0 0.0 xyz
      dof rx ry rz
   end
   begin
      id 29
      name RightFoot
      direction 0.000000 -0.258819 0.965926
      length 4.924528
      axis 15.0 0.0 0.0 xyz
      dof rx ry rz
   end
   begin
      id 30
      name RightToeBase
      direction 0.000000 0.000000 1.000000
      length 2.952750
      axis 0.0 0.0 0.0 xyz
      dof rx ry rz
   end
:hierarchy
   begin
      root Spine_dum LeftUpLeg_dum RightUpLeg_dum
      Spine_dum Spine
      LeftUpLeg_dum LeftUpLeg
      RightUpLeg_dum RightUpLeg
      Spine Spine_dum1 Spine_dum2 Spine_dum3
      Spine_dum1 Head
      Spine_dum2 LeftShoulder
      Spine_dum3 RightShoulder
      LeftShoulder LeftArm
      LeftArm LeftForeArm
      LeftForeArm LeftHand
      LeftHand LeftHand_dum1 LeftHand_dum2
      LeftHand_dum1 LeftHandThumb1
      RightShoulder RightArm
      RightArm RightForeArm
      RightForeArm RightHand
      RightHand RightHand_dum1 RightHand_dum2
      RightHand_dum1 RightHandThumb1
      LeftUpLeg LeftLeg
      LeftLeg LeftFoot
      LeftFoot LeftToeBase
      RightUpLeg RightLeg
      RightLeg RightFoot
      RightFoot RightToeBase
   end

# File created by Blade
# Date/Time:  Wed Jan 21 17:10:37 2015
# Frame Rate: 120.000 fps
#------------------------------------------------------
:FULLY-SPECIFIED
:DEGREES
1
root 18.408967 35.349143 -24.083059 -177.385787 -2.939262 -179.485133
Spine -12.555536 -1.951836 -0.252678
Head 8.371946 -3.077288 1.158250
LeftShoulder -13.899287 -27.994260 19.192227
LeftArm 4.875233 0.888391 -8.654298
LeftForeArm 10.370868 -0.000000 -2.812460
LeftHand -8.414675 -0.000000 -3.898210
LeftHandThumb1 -26.253704 0.000000 33.147579
RightShoulder -13.176858 -7.944458 -7.931518
RightArm 10.762603 35.465216 10.462642
RightForeArm -37.800701 -0.000000 6.610974
RightHand -10.607242 -0.000000 7.172048
RightHandThumb1 -24.326973 -0.000000 -32.862282
LeftUpLeg 7.440147 9.278537 3.763347
LeftLeg -6.230725 -0.000000 0.000000
LeftFoot -19.788337 25.462925 -13.131696
LeftToeBase 24.769005 -0.000000 -0.000000
RightUpLeg 6.805917 -12.841993 -2.828159
RightLeg -4.121372 -0.000000 0.000000
RightFoot -21.390829 -27.343096 16.774913
RightToeBase 24.929306 -0.000000 -0.000000
2
root 18.410860 35.349006 -24.082622 -177.379389 -2.936696 -179.481432
Spine -12.554310 -1.966359 -0.248900
Head 8.363190 -3.072200 1.165362
LeftShoulder -13.907520 -27.991291 19.194000
LeftArm 4.878911 0.886434 -8.645768
LeftForeArm 10.353764 -0.000000 -2.805029
LeftHand -8.411363 -0.000000 -3.902287
LeftHandThumb1 -26.253704 0.000000 33.147579
RightShoulder -13.219970 -8.008076 -7.925170
RightArm 10.874198 35.399924 10.499589
RightForeArm -37.660145 -0.000000 6.566637
RightHand -10.589994 -0.000000 7.125118
RightHandThumb1 -24.326973 -0.000000 -32.862282
LeftUpLeg 7.439351 9.262989 3.767457
LeftLeg -6.241918 -0.000000 0.000000
LeftFoot -19.793120 25.482807 -13.144204
LeftToeBase 24.741338 -0.000000 -0.000000
RightUpLeg 6.801531 -12.862670 -2.820008
RightLeg -4.130070 -0.000000 0.000000
RightFoot -21.376657 -27.340102 16.762515
RightToeBase 24.972645 -0.000000 -0.000000
3
root 18.411936 35.348616 -24.082130 -177.368011 -2.938144 -179.478676
Spine -12.552891 -1.966474 -0.252652
Head 8.331703 -3.088549 1.177168
LeftShoulder -13.908289 -28.003217 19.216986
LeftArm 4.874779 0.881039 -8.670301
LeftForeArm 10.337560 -0.000000 -2.797704
LeftHand -8.421524 0.000000 -3.870241
LeftHandThumb1 -26.253704 0.000000 33.147579
RightShoulder -13.255123 -8.027512 -7.911132
RightArm 10.929606 35.433480 10.525835
RightForeArm -37.689553 -0.000000 6.557616
RightHand -10.364125 -0.000000 7.093650
RightHandThumb1 -24.326973 -0.000000 -32.862282
LeftUpLeg 7.427027 9.260078 3.769526
LeftLeg -6.241548 -0.000000 0.000000
LeftFoot -19.764754 25.485628 -13.106733
LeftToeBase 24.695639 -0.000000 -0.000000
RightUpLeg 6.799732 -12.863756 -2.815035
RightLeg -4.147694 -0.000000 0.000000
RightFoot -21.374947 -27.328614 16.820187
RightToeBase 24.936990 -0.000000 -0.000000
4
root 18.413188 35.348567 -24.081362 -177.361740 -2.930151 -179.478005
Spine -12.543967 -1.971988 -0.254037
Head 8.310097 -3.032962 1.164959
LeftShoulder -13.930665 -27.990317 19.227753
LeftArm 4.902983 0.877071 -8.687176
LeftForeArm 10.304344 0.000000 -2.814340
LeftHand -8.438622 -0.000000 -3.833493
LeftHandThumb1 -26.253704 0.000000 33.147579
RightShoulder -13.258154 -8.016153 -7.905822
RightArm 10.941694 35.437582 10.529779
RightForeArm -37.665015 -0.000000 6.596272
RightHand -10.407760 -0.000000 7.142548
RightHandThumb1 -24.326973 -0.000000 -32.862282
LeftUpLeg 7.420903 9.274845 3.770547
LeftLeg -6.247965 -0.000000 0.000000
LeftFoot -19.801454 25.493655 -13.150372
LeftToeBase 24.653741 -0.000000 -0.000000
RightUpLeg 6.794645 -12.871589 -2.812472
RightLeg -4.156375 -0.000000 0.000000
RightFoot -21.361450 -27.308890 16.754104
RightToeBase 24.958476 -0.000000 -0.000000
5
root 18.415367 35.348753 -24.080330 -177.349103 -2.915556 -179.472620
Spine -12.547951 -1.964536 -0.253766
Head 8.302772 -3.012284 1.174001
LeftShoulder -13.927398 -28.003922 19.233045
LeftArm 4.899685 0.897127 -8.692210
LeftForeArm 10.283711 -0.000000 -2.816763
LeftHand -8.445610 0.000000 -3.819794
LeftHandThumb1 -26.253704 0.000000 33.147579
RightShoulder -13.259619 -8.020312 -7.893281
RightArm 10.959078 35.439321 10.525930
RightForeArm -37.633567 -0.000000 6.580179
RightHand -10.398649 -0.000000 7.113999
RightHandThumb1 -24.326973 -0.000000 -32.862282
LeftUpLeg 7.414093 9.282696 3.778082
LeftLeg -6.256470 -0.000000 0.000000
LeftFoot -19.787170 25.489781 -13.135886
LeftToeBase 24.758275 -0.000000 -0.000000
RightUpLeg 6.780231 -12.858355 -2.800322
RightLeg -4.159184 -0.000000 0.000000
RightFoot -21.361732 -27.312167 16.808562
RightToeBase 24.894843 -0.000000 -0.000000
6
root 18.416133 35.348587 -24.079708 -177.339368 -2.912003 -179.475844
Spine -12.549014 -1.978683 -0.256947
Head 8.292575 -3.008432 1.173191
LeftShoulder -13.937152 -28.000924 19.231860
LeftArm 4.912289 0.904048 -8.687274
LeftForeArm 10.289082 -0.000000 -2.830194
LeftHand -8.445689 0.000000 -3.853540
LeftHandThumb1 -26.253704 0.000000 33.147579
RightShoulder -13.257261 -8.024065 -7.887616
RightArm 10.983236 35.462855 10.537398
RightForeArm -37.632895 -0.000000 6.581119
RightHand -10.414633 -0.000000 7.083641
RightHandThumb1 -24.326973 -0.000000 -32.862282
LeftUpLeg 7.403167 9.287021 3.772286
LeftLeg -6.256986 -0.000000 0.000000
LeftFoot -19.800240 25.499266 -13.163011
LeftToeBase 24.825620 -0.000000 -0.000000
RightUpLeg 6.774893 -12.884416 -2.804400
RightLeg -4.173070 -0.000000 0.000000
RightFoot -21.339333 -27.329000 16.741985
RightToeBase 25.115224 -0.000000 -0.000000
7
root 18.416958 35.348426 -24.079243 -177.331486 -2.895139 -179.472581
Spine -12.548443 -1.963417 -0.256134
Head 8.266355 -3.091115 1.188725
LeftShoulder -13.940479 -28.000832 19.229032
LeftArm 4.931522 0.902672 -8.694889
LeftForeArm 10.270885 0.000000 -2.847227
LeftHand -8.434797 -0.000000 -3.857375
LeftHandThumb1 -26.253704 0.000000 33.147579
RightShoulder -13.262234 -8.014319 -7.896245
RightArm 10.991824 35.481918 10.563786
RightForeArm -37.663728 -0.000000 6.593932
RightHand -10.414010 -0.000000 7.107066
RightHandThumb1 -24.326973 -0.000000 -32.862282
LeftUpLeg 7.400085 9.305068 3.777270
LeftLeg -6.260954 -0.000000 0.000000
LeftFoot -19.787875 25.495760 -13.137295
LeftToeBase 24.766534 -0.000000 -0.000000
RightUpLeg 6.766138 -12.878562 -2.797944
RightLeg -4.177476 -0.000000 0.000000
RightFoot -21.337214 -27.282593 16.737152
RightToeBase 25.002495 -0.000000 -0.000000
8
root 18.418113 35.348344 -24.078270 -177.317014 -2.877570 -179.466348
Spine -12.556059 -1.954860 -0.250993
Head 8.262062 -3.039826 1.169724
LeftShoulder -13.940569 -28.016423 19.223223
LeftArm 4.934816 0.915206 -8.686494
LeftForeArm 10.251663 -0.000000 -2.862032
LeftHand -8.417678 -0.000000 -3.942000
LeftHandThumb1 -26.253704 0.000000 33.147579
RightShoulder -13.257753 -8.011160 -7.886589
RightArm 10.992846 35.456754 10.548001
RightForeArm -37.619006 -0.000000 6.584784
RightHand -10.412496 -0.000000 7.094633
RightHandThumb1 -24.326973 -0.000000 -32.862282
LeftUpLeg 7.395711 9.305320 3.780229
LeftLeg -6.276287 -0.000000 0.000000
LeftFoot -19.774930 25.504633 -13.128070
LeftToeBase 24.759789 -0.000000 -0.000000
RightUpLeg 6.749748 -12.881392 -2.787620
RightLeg -4.186010 -0.000000 0.000000
RightFoot -21.326424 -27.275657 16.724029
RightToeBase 24.952314 -0.000000 -0.000000
9
root 18.418710 35.347886 -24.078384 -177.309773 -2.861804 -179.462520
Spine -12.557669 -1.951220 -0.245817
Head 8.257072 -3.009065 1.172421
LeftShoulder -13.956274 -28.009459 19.227781
LeftArm 4.954574 0.895097 -8.699786
LeftForeArm 10.257665 -0.000000 -2.887888
LeftHand -8.401108 -0.000000 -3.971102
LeftHandThumb1 -26.253704 0.000000 33.147579
RightShoulder -13.243762 -8.001635 -7.894358
RightArm 10.981039 35.419449 10.545346
RightForeArm -37.566191 0.000000 6.592116
RightHand -10.412016 -0.000000 7.105757
RightHandThumb1 -24.326973 -0.000000 -32.862282
LeftUpLeg 7.395653 9.318852 3.782914
LeftLeg -6.283402 -0.000000 0.000000
LeftFoot -19.756433 25.508857 -13.107139
LeftToeBase 24.698228 -0.000000 -0.000000
RightUpLeg 6.741620 -12.883605 -2.782448
RightLeg -4.190925 -0.000000 0.000000
RightFoot -21.319088 -27.262911 16.712870
RightToeBase 24.954671 -0.000000 -0.000000
